<svg xmlns="http://www.w3.org/2000/svg" width="555" height="470" viewBox="0 0 555 470"><g><g clip-path="url(#clip-2)"><path d="M549.993 223.392L443.846 117.558s-10.663-6.819-19.436 1.926c-9.166 9.138-.592 19.042-.592 19.042l96.133 95.85-96.133 95.849s-8.922 10.645.5 19.47c10.045 9.407 19.528.498 19.528.498L549.993 244.36s5.007-4.915 5.007-9.985c0-5.403-5.007-10.983-5.007-10.983zM0 234.375c0 5.07 5.007 9.985 5.007 9.985l106.147 105.833s9.483 8.909 19.527-.499c9.423-8.824.501-19.47.501-19.47L35.05 234.376l96.133-95.85s8.574-9.903-.592-19.04c-8.773-8.746-19.436-1.927-19.436-1.927L5.007 223.392S0 228.972 0 234.375zm338.157-12.891c-19.054-29.383-43.21-32.21-43.21-32.21s-12.386-4.007-15.856 8.943c-3.642 13.594 9.13 16.155 9.13 16.155s18.185 7.798 25.835 19.975c7.59 12.08 4.647 28.542 4.647 28.542l-36.987 138.037s-8.317 52.606-55.244 40.032c-45.316-12.143-26.86-62.031-26.86-62.031l18.882-70.467s2.328-13.86-10.868-17.396c-12.154-3.257-17.144 9.89-17.144 9.89l-22.503 83.981s-12.563 64.918 52.234 82.28c62.705 16.802 85.893-45.269 85.893-45.269l40.609-151.551s4.133-29.34-8.558-48.911zm-122.359 27.2c19.05 29.399 43.207 32.223 43.207 32.223s12.385 4.007 15.857-8.951c3.645-13.602-9.127-16.163-9.127-16.163s-18.185-7.8-25.833-19.983c-7.589-12.087-4.642-28.559-4.642-28.559l37.01-138.127s8.326-52.639 55.253-40.065c45.317 12.143 26.851 62.064 26.851 62.064l-18.893 70.513s-2.33 13.87 10.865 17.405c12.153 3.257 17.146-9.9 17.146-9.9l22.518-84.035s12.574-64.959-52.223-82.321c-62.705-16.802-85.905 45.31-85.905 45.31l-40.634 151.65s-4.138 29.358 8.55 48.94z"/></g></g></svg>